<svg width="70" height="71" viewBox="0 0 70 71" fill="none" xmlns="http://www.w3.org/2000/svg">
<path d="M35.0699 54.82C31.8499 54.82 28.6299 53.98 25.7599 52.37C16.4499 47.26 13.0899 35.5 18.2699 26.26C20.7899 21.78 24.8499 18.49 29.8199 17.09C34.7899 15.69 39.9699 16.25 44.4499 18.77C53.7599 23.95 57.1199 35.64 51.9399 44.95C49.4199 49.43 45.3599 52.72 40.3899 54.12C38.6399 54.61 36.8199 54.82 35.0699 54.82ZM35.1399 17.02C33.3899 17.02 31.7099 17.23 30.0299 17.72C25.2699 19.12 21.3499 22.2 18.8999 26.54C13.9299 35.5 17.2199 46.77 26.1099 51.74C30.4499 54.12 35.4199 54.68 40.2499 53.35C45.0099 51.95 48.9299 48.87 51.3799 44.53C56.3499 35.57 53.1299 24.3 44.1699 19.33C41.2999 17.79 38.2199 17.02 35.1399 17.02Z" fill="#683826"/>
<path d="M44.03 18.2099L43.4 17.8599C45.71 13.0999 42.63 10.6499 39.06 7.91994C37.73 6.86994 36.33 5.81994 35.14 4.48994C33.95 5.74994 32.55 6.86994 31.15 7.91994C28.84 9.66994 26.67 11.3499 26.18 13.5899L25.48 13.4499C26.11 10.9999 28.35 9.24994 30.73 7.35994C32.13 6.23994 33.67 5.11994 34.86 3.71994L35.14 3.43994L35.42 3.71994C36.61 5.04994 38.08 6.23994 39.55 7.28994C43.12 10.2299 46.55 12.8899 44.03 18.2099Z" fill="#683826"/>
<path d="M12.7399 26.4C11.9699 24.37 12.2499 21.85 12.5999 19.19C12.8099 17.44 13.0199 15.55 12.9499 13.73V13.31H13.3699C15.1899 13.38 17.0099 13.17 18.8299 12.96C23.4499 12.4 27.7899 11.84 29.7499 17.37L29.1199 17.58C27.3699 12.54 23.4499 13.03 18.9699 13.66C17.2899 13.87 15.5399 14.08 13.7899 14.01C13.8599 15.76 13.6499 17.51 13.4399 19.19C13.0899 21.71 12.8099 24.16 13.5799 26.05L12.7399 26.4Z" fill="#683826"/>
<path d="M12.9499 45.2299C10.4999 44.5999 8.74994 42.3599 6.85994 39.9799C5.73994 38.5799 4.61994 37.0399 3.21994 35.8499L2.93994 35.5699L3.21994 35.2899C4.54994 34.0999 5.73994 32.6299 6.78994 31.1599C9.65994 27.5199 12.3199 24.0199 17.6399 26.6099L17.3599 27.2399C12.5999 24.9999 10.2199 28.0799 7.41994 31.6499C6.36994 32.9799 5.31994 34.3799 3.98994 35.5699C5.24994 36.7599 6.36994 38.1599 7.41994 39.4899C9.16994 41.7999 10.8499 43.8999 13.0899 44.5299L12.9499 45.2299Z" fill="#683826"/>
<path d="M22.75 58.3899C21.49 58.3899 20.09 58.2499 18.69 58.0399C16.94 57.8299 15.05 57.6199 13.23 57.6899H12.81V57.2699C12.88 55.4499 12.67 53.6299 12.46 51.8099C11.9 47.1899 11.34 42.8499 16.87 40.8899L17.08 41.5199C12.04 43.2699 12.53 47.1899 13.16 51.6699C13.37 53.3499 13.58 55.0999 13.51 56.8499C15.26 56.7799 17.01 56.9899 18.69 57.1999C21.21 57.5499 23.66 57.8299 25.55 57.0599L25.9 57.8999C24.92 58.3199 23.87 58.3899 22.75 58.3899Z" fill="#683826"/>
<path d="M35.0699 67.6999L34.7899 67.4199C33.5999 66.0899 32.1299 64.8999 30.6599 63.8499C27.0199 60.9799 23.5199 58.3199 26.1099 53.0699L26.7399 53.3499C24.4299 58.1099 27.5099 60.5599 31.0799 63.2899C32.4099 64.3399 33.8099 65.3899 34.9999 66.7199C36.1899 65.4599 37.5899 64.3399 38.9199 63.2899C41.2299 61.5399 43.3299 59.8599 43.9599 57.6199L44.6599 57.7599C44.0299 60.2099 41.7899 61.9599 39.4099 63.8499C38.0099 64.9699 36.4699 66.0899 35.2799 67.4899L35.0699 67.6999Z" fill="#683826"/>
<path d="M47.3899 58.46C44.4499 58.46 41.9299 57.55 40.5299 53.7L41.1599 53.49C42.9099 58.53 46.8299 58.04 51.3099 57.41C52.9899 57.2 54.7399 56.99 56.4899 57.06C56.4199 55.31 56.6299 53.56 56.8399 51.88C57.1899 49.36 57.4699 46.91 56.6999 45.02L57.3299 44.74C58.0999 46.77 57.8199 49.29 57.4699 51.95C57.2599 53.7 57.0499 55.59 57.1199 57.41V57.83H56.6999C54.8799 57.76 53.0599 57.97 51.2399 58.18C50.0499 58.25 48.6499 58.46 47.3899 58.46Z" fill="#683826"/>
<path d="M55.8599 45.3699C54.8799 45.3699 53.7599 45.0899 52.4299 44.4599L52.7099 43.8299C57.4699 46.1399 59.9199 43.0599 62.6499 39.4899C63.6999 38.1599 64.7499 36.7599 66.0799 35.5699C64.8199 34.3799 63.6999 32.9799 62.6499 31.5799C60.8999 29.2699 59.2199 27.0999 56.9799 26.6099L57.1199 25.9099C59.5699 26.5399 61.3199 28.7799 63.2099 31.1599C64.3299 32.5599 65.4499 34.0999 66.8499 35.2899L67.1299 35.5699L66.8499 35.8499C65.5199 37.0399 64.3299 38.5099 63.2799 39.9799C61.1099 42.7099 59.0099 45.3699 55.8599 45.3699Z" fill="#683826"/>
<path d="M53.2 30.11L52.99 29.48C58.03 27.73 57.54 23.81 56.91 19.33C56.7 17.65 56.49 15.9 56.56 14.15C54.81 14.22 53.06 14.01 51.38 13.8C48.86 13.45 46.41 13.17 44.52 13.94L44.24 13.31C46.27 12.54 48.79 12.82 51.45 13.17C53.2 13.38 55.09 13.59 56.91 13.52H57.33V13.94C57.26 15.76 57.47 17.58 57.68 19.4C58.17 23.81 58.73 28.15 53.2 30.11Z" fill="#683826"/>
<path d="M36.82 26.96C36.68 26.61 36.47 26.26 36.33 25.98L36.12 25.63C35.84 25.21 35.63 24.72 35.42 24.3L35.21 23.88C35.21 23.81 35.14 23.74 35.14 23.67C35.14 23.74 35.07 23.81 35.07 23.88L34.86 24.3C34.79 24.51 34.65 24.72 34.51 24.86C34.37 25.07 34.23 25.35 34.09 25.63C33.81 26.12 33.6 26.54 33.39 26.96L32.76 26.68C32.97 26.26 33.18 25.77 33.46 25.28C33.6 25 33.74 24.79 33.88 24.51C34.02 24.3 34.09 24.09 34.16 23.95L34.37 23.53C34.51 23.25 34.65 22.97 34.79 22.69L35.14 21.99L35.49 22.69C35.63 22.97 35.77 23.25 35.91 23.53L36.12 23.95C36.33 24.37 36.61 24.79 36.82 25.28L37.03 25.63C37.24 25.98 37.38 26.33 37.59 26.68L36.82 26.96Z" fill="#683826"/>
<path d="M35.0699 49.1499L34.7199 48.4499C34.5799 48.1699 34.4399 47.8899 34.2999 47.6099L34.0899 47.1899C34.0199 46.9799 33.8799 46.8399 33.8099 46.6299C33.6699 46.4199 33.5299 46.1399 33.3899 45.8599C33.1099 45.3699 32.8999 44.8799 32.6899 44.4599L33.3199 44.1799C33.5299 44.5999 33.7399 45.0199 34.0199 45.5099C34.1599 45.7899 34.2999 45.9999 34.4399 46.2799C34.5799 46.4899 34.6499 46.6999 34.7899 46.8399L34.9999 47.2599C34.9999 47.3299 35.0699 47.3999 35.0699 47.4699C35.0699 47.3999 35.1399 47.3299 35.1399 47.2599L35.3499 46.8399C35.5599 46.4199 35.8399 45.9299 36.0499 45.5099L36.2599 45.1599C36.4699 44.8099 36.6099 44.5299 36.7499 44.1799L37.3799 44.4599C37.2399 44.8099 37.0299 45.1599 36.8199 45.5099L36.6099 45.8599C36.3299 46.2799 36.1199 46.7699 35.9099 47.1899L35.6999 47.6099C35.5599 47.8899 35.4199 48.1699 35.2799 48.4499L35.0699 49.1499Z" fill="#683826"/>
<path d="M27.02 30.95C26.88 30.46 26.67 29.97 26.53 29.48C26.46 29.2 26.39 28.92 26.25 28.64C26.18 28.43 26.11 28.22 26.04 28.01C25.97 27.66 25.83 27.31 25.69 27.03L25.34 25.98L26.04 26.26C26.46 26.4 26.88 26.54 27.37 26.68L27.65 26.75C28 26.89 28.42 26.96 28.84 27.1C29.33 27.24 29.82 27.38 30.31 27.59L30.1 28.22C29.61 28.08 29.12 27.87 28.63 27.73C28.21 27.59 27.86 27.52 27.44 27.38L27.3 27.31C27.09 27.24 26.81 27.17 26.6 27.1C26.67 27.31 26.74 27.52 26.81 27.8C26.88 28.01 26.95 28.22 27.02 28.36C27.09 28.64 27.23 28.92 27.3 29.27C27.44 29.76 27.58 30.25 27.79 30.74L27.02 30.95Z" fill="#683826"/>
<path d="M44.73 45.16L43.68 44.81C43.33 44.67 42.98 44.6 42.7 44.46C42.49 44.39 42.28 44.32 42.07 44.25C41.79 44.18 41.51 44.04 41.23 43.97C40.74 43.83 40.25 43.69 39.76 43.48L39.97 42.85C40.46 42.99 40.95 43.2 41.44 43.34C41.72 43.41 42 43.48 42.35 43.62C42.56 43.69 42.77 43.76 42.91 43.83C43.12 43.9 43.4 43.97 43.61 44.04C43.54 43.83 43.47 43.55 43.4 43.34L43.33 42.99C43.19 42.64 43.12 42.22 42.98 41.87C42.84 41.38 42.7 40.89 42.49 40.4L43.12 40.12C43.26 40.61 43.47 41.1 43.61 41.59C43.75 41.94 43.82 42.36 43.96 42.71L44.03 42.99C44.17 43.48 44.31 43.9 44.45 44.32L44.73 45.16Z" fill="#683826"/>
<path d="M26.11 37.95C25.69 37.74 25.2 37.53 24.71 37.25C24.43 37.11 24.22 36.97 24.01 36.83C23.8 36.69 23.59 36.62 23.45 36.48L23.03 36.27C22.75 36.13 22.47 35.99 22.19 35.85L21.49 35.5L22.19 35.15C22.47 35.01 22.75 34.87 23.03 34.73L23.45 34.52C23.87 34.31 24.29 34.1 24.71 33.82L25.13 33.61C25.48 33.4 25.83 33.26 26.18 33.05L26.46 33.68C26.11 33.82 25.83 34.03 25.48 34.17L25.13 34.38C24.71 34.66 24.22 34.87 23.8 35.08L23.31 35.5C23.24 35.5 23.17 35.57 23.1 35.57C23.17 35.57 23.24 35.64 23.31 35.64L23.73 35.85C23.94 35.99 24.15 36.06 24.36 36.2C24.57 36.34 24.85 36.48 25.06 36.62C25.55 36.9 26.04 37.11 26.39 37.32L26.11 37.95Z" fill="#683826"/>
<path d="M44.03 37.95L43.75 37.32C44.17 37.11 44.59 36.9 45.08 36.62C45.36 36.48 45.57 36.34 45.78 36.2C45.99 36.06 46.2 35.99 46.41 35.85L46.83 35.64C46.9 35.64 46.97 35.57 47.04 35.57C46.97 35.57 46.9 35.5 46.83 35.5L46.41 35.29C45.99 35.08 45.5 34.8 45.08 34.59L44.73 34.38C44.38 34.17 44.1 34.03 43.75 33.89L44.03 33.26C44.38 33.4 44.73 33.61 45.08 33.82L45.43 34.03C45.85 34.31 46.34 34.52 46.76 34.73L47.18 34.94C47.46 35.08 47.74 35.22 48.02 35.36L48.72 35.71L48.02 36.06C47.74 36.2 47.46 36.34 47.18 36.48L46.76 36.69C46.55 36.76 46.41 36.9 46.2 37.04C45.99 37.18 45.71 37.32 45.5 37.46C44.94 37.53 44.45 37.74 44.03 37.95Z" fill="#683826"/>
<path d="M25.41 45.16L25.69 44.46C25.83 44.04 25.97 43.62 26.11 43.13L26.18 42.78C26.32 42.43 26.39 42.01 26.53 41.59C26.67 41.1 26.81 40.61 27.02 40.12L27.65 40.33C27.51 40.82 27.3 41.31 27.16 41.8C27.02 42.22 26.95 42.57 26.81 42.92L26.74 43.2C26.67 43.41 26.6 43.69 26.53 43.9C26.74 43.83 26.95 43.76 27.23 43.69C27.44 43.62 27.65 43.55 27.79 43.48C28.07 43.41 28.35 43.27 28.63 43.2C29.12 43.06 29.61 42.92 30.1 42.71L30.31 43.34C29.82 43.48 29.33 43.69 28.84 43.83C28.56 43.9 28.28 43.97 28 44.11C27.79 44.18 27.58 44.25 27.37 44.32C27.02 44.39 26.67 44.53 26.32 44.67L25.41 45.16Z" fill="#683826"/>
<path d="M43.12 30.88L42.42 30.67V30.6C42.56 30.11 42.77 29.62 42.84 29.2C42.91 28.92 42.98 28.64 43.12 28.29C43.19 28.08 43.26 27.87 43.33 27.73C43.4 27.52 43.47 27.24 43.54 27.03C43.33 27.1 43.05 27.17 42.84 27.24L42.56 27.31C42.21 27.45 41.79 27.52 41.44 27.66C40.95 27.8 40.46 27.94 39.97 28.15L39.76 27.52C40.25 27.38 40.74 27.17 41.23 27.03C41.58 26.89 42 26.82 42.35 26.68L42.63 26.61C43.05 26.47 43.54 26.33 43.96 26.19L44.66 25.91L44.31 26.96C44.17 27.31 44.1 27.66 43.96 27.94C43.89 28.15 43.82 28.36 43.75 28.5C43.68 28.78 43.54 29.06 43.47 29.34C43.4 29.9 43.26 30.39 43.12 30.88Z" fill="#683826"/>
<path d="M35.07 39.56C32.83 39.56 31.08 37.74 31.08 35.57C31.08 33.33 32.9 31.58 35.07 31.58C37.31 31.58 39.06 33.4 39.06 35.57C39.06 37.74 37.31 39.56 35.07 39.56ZM35.07 32.28C33.25 32.28 31.78 33.75 31.78 35.57C31.78 37.39 33.25 38.86 35.07 38.86C36.89 38.86 38.36 37.39 38.36 35.57C38.36 33.75 36.89 32.28 35.07 32.28Z" fill="#683826"/>
</svg>
