<svg width="68" height="68" viewBox="0 0 68 68" fill="none" xmlns="http://www.w3.org/2000/svg">
<path d="M65.8074 9.36206H2.19263V57.4923H65.8074V9.36206Z" fill="#31452D"/>
<path d="M8.22635 6.52301C9.05587 6.52301 9.72833 5.85055 9.72833 5.02103C9.72833 4.1915 9.05587 3.51904 8.22635 3.51904C7.39683 3.51904 6.72437 4.1915 6.72437 5.02103C6.72437 5.85055 7.39683 6.52301 8.22635 6.52301Z" fill="#31452D"/>
<path d="M14.1651 6.52301C14.9946 6.52301 15.6671 5.85055 15.6671 5.02103C15.6671 4.1915 14.9946 3.51904 14.1651 3.51904C13.3355 3.51904 12.6631 4.1915 12.6631 5.02103C12.6631 5.85055 13.3355 6.52301 14.1651 6.52301Z" fill="#31452D"/>
<path d="M20.1039 6.52301C20.9334 6.52301 21.6059 5.85055 21.6059 5.02103C21.6059 4.1915 20.9334 3.51904 20.1039 3.51904C19.2744 3.51904 18.6019 4.1915 18.6019 5.02103C18.6019 5.85055 19.2744 6.52301 20.1039 6.52301Z" fill="#31452D"/>
<path d="M8.22635 2.839C7.02316 2.839 6.04436 3.81779 6.04436 5.02085C6.04436 6.22404 7.02316 7.20283 8.22635 7.20283C9.42954 7.20283 10.4083 6.22404 10.4083 5.02085C10.4083 3.81793 9.42954 2.839 8.22635 2.839ZM8.22635 5.84297C7.77306 5.84297 7.40436 5.47427 7.40436 5.02098C7.40436 4.5677 7.77306 4.19914 8.22635 4.19914C8.67964 4.19914 9.04833 4.56783 9.04833 5.02098C9.04833 5.47414 8.67964 5.84297 8.22635 5.84297ZM14.1651 2.839C12.9619 2.839 11.9831 3.81779 11.9831 5.02085C11.9831 6.22404 12.9619 7.20283 14.1651 7.20283C15.3683 7.20283 16.347 6.22404 16.347 5.02085C16.347 3.81793 15.3683 2.839 14.1651 2.839ZM14.1651 5.84297C13.7118 5.84297 13.3431 5.47427 13.3431 5.02098C13.3431 4.5677 13.7118 4.19914 14.1651 4.19914C14.6183 4.19914 14.987 4.56783 14.987 5.02098C14.987 5.47414 14.6183 5.84297 14.1651 5.84297ZM20.1038 2.839C18.9007 2.839 17.9219 3.81779 17.9219 5.02085C17.9219 6.22404 18.9007 7.20283 20.1038 7.20283C21.307 7.20283 22.2858 6.22404 22.2858 5.02085C22.2858 3.81793 21.307 2.839 20.1038 2.839ZM20.1038 5.84297C19.6506 5.84297 19.2819 5.47427 19.2819 5.02098C19.2819 4.5677 19.6506 4.19914 20.1038 4.19914C20.5571 4.19914 20.9258 4.56783 20.9258 5.02098C20.9258 5.47414 20.5571 5.84297 20.1038 5.84297ZM1.51257 30.0285V29.2823C1.51257 28.9068 1.81694 28.6023 2.19257 28.6023C2.56821 28.6023 2.87257 28.9068 2.87257 29.2823V30.0285C2.87257 30.404 2.56821 30.7085 2.19257 30.7085C1.81694 30.7085 1.51257 30.404 1.51257 30.0285ZM63.2294 0H4.77059C2.97417 0 1.51257 1.46159 1.51257 3.25802V26.8648C1.51257 27.2403 1.81694 27.5448 2.19257 27.5448C2.56821 27.5448 2.87257 27.2403 2.87257 26.8648V10.042H65.1274V56.8122H2.87257V33.2596C2.87257 32.8841 2.56821 32.5796 2.19257 32.5796C1.81694 32.5796 1.51257 32.8841 1.51257 33.2596V64.742C1.51257 66.5384 2.97417 68 4.77059 68H63.2294C65.0258 68 66.4874 66.5384 66.4874 64.742V3.25802C66.4874 1.46159 65.0258 0 63.2294 0ZM65.1274 64.742C65.1274 65.7885 64.2759 66.64 63.2294 66.64H4.77059C3.72407 66.64 2.87257 65.7885 2.87257 64.742V58.1722H65.1274V64.742ZM65.1274 8.68197H2.87257V3.25802C2.87257 2.2115 3.72407 1.36 4.77059 1.36H63.2294C64.2759 1.36 65.1274 2.2115 65.1274 3.25802V8.68197ZM14.6854 36.8682C14.6495 37.3912 14.8255 37.8903 15.1807 38.2735C15.531 38.6515 16.0274 38.8704 16.5453 38.8744L20.5071 38.8887C21.0443 38.8907 21.5761 38.942 22.0986 39.0417C22.1042 39.0429 22.1096 39.0441 22.1152 39.0452C22.6252 39.1435 23.1264 39.2874 23.6152 39.4775L27.352 40.9307V43.7002C27.352 44.0757 27.6564 44.3802 28.032 44.3802C28.4077 44.3802 28.712 44.0757 28.712 43.7002V40.6654V40.4657V32.8917C28.712 32.5162 28.4077 32.2117 28.032 32.2117C27.6564 32.2117 27.352 32.5162 27.352 32.8917V39.4716L24.1082 38.21C23.72 38.0591 23.3248 37.9352 22.9247 37.8342V36.483H24.5406C25.4234 36.483 26.1415 35.7649 26.1415 34.8821V31.8974C26.1415 29.7783 27.8656 28.0544 29.9846 28.0544H38.0155C40.1345 28.0544 41.8585 29.7783 41.8585 31.8974V34.8821C41.8585 35.7649 42.5765 36.483 43.4593 36.483H45.0753V37.8342C44.6752 37.9353 44.2798 38.0592 43.8918 38.21L40.6481 39.4714V32.8916C40.6481 32.5161 40.3437 32.2116 39.9681 32.2116C39.5924 32.2116 39.2881 32.5161 39.2881 32.8916V40.4638C39.2881 40.4644 39.2879 40.4649 39.2879 40.4656V43.7003C39.2879 44.0758 39.5923 44.3803 39.9679 44.3803C40.3436 44.3803 40.6479 44.0758 40.6479 43.7003V40.9308L44.3848 39.4777C44.8736 39.2875 45.3747 39.1437 45.8846 39.0453C45.8903 39.0442 45.8958 39.043 45.9012 39.0418C46.4237 38.9421 46.9553 38.8907 47.4925 38.8888L51.4573 38.8745C51.9725 38.8706 52.4688 38.6515 52.8191 38.2737C53.1742 37.8904 53.3502 37.3913 53.3144 36.8684C53.2477 35.8897 52.4077 35.1231 51.4024 35.1231H51.0557C51.1501 34.8822 51.2037 34.6213 51.2037 34.3473C51.2037 33.1697 50.2457 32.2117 49.0682 32.2117C47.8907 32.2117 46.9328 33.1697 46.9328 34.3473C46.9328 34.6211 46.9865 34.8822 47.0807 35.1231H43.4593C43.3264 35.1231 43.2185 35.0151 43.2185 34.8822V31.8974C43.2185 29.1179 41.0275 26.8403 38.2819 26.7012C40.211 25.348 41.4755 23.109 41.4755 20.579C41.4755 16.457 38.1221 13.1036 34.0001 13.1036C29.8781 13.1036 26.5247 16.4571 26.5247 20.579C26.5247 23.109 27.7893 25.3478 29.7183 26.7012C26.9726 26.8403 24.7816 29.1179 24.7816 31.8974V34.8821C24.7816 35.015 24.6735 35.123 24.5408 35.123H20.9194C21.0137 34.8821 21.0673 34.6211 21.0673 34.3472C21.0673 33.1696 20.1094 32.2116 18.9319 32.2116C17.7544 32.2116 16.7964 33.1696 16.7964 34.3472C16.7964 34.621 16.8501 34.8821 16.9444 35.123H16.5977C15.5921 35.123 14.7523 35.8897 14.6854 36.8682ZM49.0682 33.5717C49.496 33.5717 49.8437 33.9196 49.8437 34.3473C49.8437 34.7751 49.4958 35.123 49.0682 35.123C48.6406 35.123 48.2928 34.7751 48.2928 34.3473C48.2928 33.9196 48.6405 33.5717 49.0682 33.5717ZM46.4353 36.483H51.4024C51.6905 36.483 51.9395 36.6974 51.9576 36.9611C51.9675 37.1061 51.9192 37.2439 51.8216 37.3493C51.7238 37.4548 51.5908 37.5136 51.4499 37.5146L47.4876 37.5289C47.1345 37.5303 46.7836 37.5521 46.4353 37.59V36.483ZM27.8846 20.579C27.8846 17.207 30.628 14.4636 34 14.4636C37.372 14.4636 40.1154 17.207 40.1154 20.579C40.1154 23.951 37.372 26.6944 34 26.6944C30.628 26.6944 27.8846 23.9511 27.8846 20.579ZM18.9316 33.5717C19.3593 33.5717 19.7071 33.9196 19.7071 34.3473C19.7071 34.7751 19.3592 35.123 18.9316 35.123C18.504 35.123 18.1561 34.7751 18.1561 34.3473C18.1561 33.9196 18.504 33.5717 18.9316 33.5717ZM21.5645 36.483V37.5899C21.2161 37.5519 20.8652 37.5302 20.512 37.5288L16.5529 37.5145C16.4091 37.5134 16.2761 37.4547 16.1783 37.3491C16.0806 37.2439 16.0323 37.106 16.0423 36.961C16.0604 36.6974 16.3094 36.483 16.5974 36.483H21.5645ZM59.3029 62.4183C59.3029 62.0428 59.6073 61.7383 59.9829 61.7383H60.8356C61.2113 61.7383 61.5156 62.0428 61.5156 62.4183C61.5156 62.7938 61.2113 63.0983 60.8356 63.0983H59.9829C59.6073 63.0983 59.3029 62.7938 59.3029 62.4183ZM7.16446 63.0983H10.928C11.2314 64.2773 12.3004 65.1523 13.5728 65.1523C14.8452 65.1523 15.9142 64.2773 16.2177 63.0983H57.3351C57.7108 63.0983 58.0151 62.7938 58.0151 62.4183C58.0151 62.0428 57.7108 61.7383 57.3351 61.7383H16.2177C15.9143 60.5593 14.8452 59.6844 13.5728 59.6844C12.3005 59.6844 11.2315 60.5593 10.928 61.7383H7.16446C6.78883 61.7383 6.48446 62.0428 6.48446 62.4183C6.48446 62.7938 6.78883 63.0983 7.16446 63.0983ZM13.5728 61.0443C14.3303 61.0443 14.9468 61.6606 14.9468 62.4182C14.9468 63.1757 14.3303 63.7922 13.5728 63.7922C12.8153 63.7922 12.1989 63.1758 12.1989 62.4182C12.1989 61.6605 12.8151 61.0443 13.5728 61.0443ZM9.47673 52.655C9.47673 53.0305 9.7811 53.335 10.1567 53.335H22.3653H45.6349H57.8435C58.2191 53.335 58.5235 53.0305 58.5235 52.655C58.5235 52.2795 58.2191 51.975 57.8435 51.975H48.6445C49.2714 51.266 49.653 50.3354 49.653 49.3169V48.8377C49.653 46.6222 47.8505 44.8196 45.6349 44.8196H22.3653C20.1497 44.8196 18.3472 46.6222 18.3472 48.8377V49.3169C18.3472 50.3354 18.7288 51.266 19.3558 51.975H10.1567C9.7811 51.975 9.47673 52.2795 9.47673 52.655ZM38.2991 51.3429C38.6747 51.3429 38.9791 51.0384 38.9791 50.6629V46.1798H45.6346C47.1003 46.1798 48.2928 47.3722 48.2928 48.8379V49.317C48.2928 50.7827 47.1003 51.9751 45.6346 51.9751H30.3809V49.7574H37.6192V50.6629C37.6191 51.0384 37.9236 51.3429 38.2991 51.3429ZM19.7071 48.8377C19.7071 47.3721 20.8995 46.1796 22.3652 46.1796H37.6191V48.3974H30.3807V47.439C30.3807 47.0635 30.0764 46.759 29.7007 46.759C29.3251 46.759 29.0207 47.0635 29.0207 47.439V51.9751H22.3652C20.8995 51.9751 19.7071 50.7827 19.7071 49.317V48.8377ZM6.32398 53.335C5.94835 53.335 5.64398 53.0305 5.64398 52.655C5.64398 52.2795 5.94835 51.975 6.32398 51.975H7.03431C7.40994 51.975 7.71431 52.2795 7.71431 52.655C7.71431 53.0305 7.40994 53.335 7.03431 53.335H6.32398ZM60.9656 53.335C60.59 53.335 60.2856 53.0305 60.2856 52.655C60.2856 52.2795 60.59 51.975 60.9656 51.975H61.676C62.0516 51.975 62.356 52.2795 62.356 52.655C62.356 53.0305 62.0516 53.335 61.676 53.335H60.9656ZM19.5138 23.4023V24.2149H20.3264C20.702 24.2149 21.0064 24.5194 21.0064 24.8949C21.0064 25.2704 20.702 25.5749 20.3264 25.5749H19.5138V26.3875C19.5138 26.763 19.2094 27.0675 18.8338 27.0675C18.4582 27.0675 18.1538 26.763 18.1538 26.3875V25.5749H17.3412C16.9656 25.5749 16.6612 25.2704 16.6612 24.8949C16.6612 24.5194 16.9656 24.2149 17.3412 24.2149H18.1538V23.4023C18.1538 23.0268 18.4582 22.7223 18.8338 22.7223C19.2094 22.7223 19.5138 23.0268 19.5138 23.4023ZM49.8462 23.4023V24.2149H50.6588C51.0344 24.2149 51.3388 24.5194 51.3388 24.8949C51.3388 25.2704 51.0344 25.5749 50.6588 25.5749H49.8462V26.3875C49.8462 26.763 49.5418 27.0675 49.1662 27.0675C48.7905 27.0675 48.4862 26.763 48.4862 26.3875V25.5749H47.6735C47.2979 25.5749 46.9936 25.2704 46.9936 24.8949C46.9936 24.5194 47.2979 24.2149 47.6735 24.2149H48.4862V23.4023C48.4862 23.0268 48.7905 22.7223 49.1662 22.7223C49.5418 22.7223 49.8462 23.0268 49.8462 23.4023Z" fill="white"/>
</svg>
