<svg width="18" height="18" viewBox="0 0 18 18" fill="none" xmlns="http://www.w3.org/2000/svg">
<g clip-path="url(#clip0_372_1935)">
<path d="M8.96942 17.2261C8.40295 17.2356 7.85139 17.0443 7.41242 16.6861C6.53942 15.9859 5.54582 15.6349 4.45322 15.4621C3.28502 15.2821 2.61002 14.5405 2.36702 13.3957C2.33781 13.277 2.31497 13.1569 2.29862 13.0357C2.20946 12.1853 1.87838 11.3782 1.34462 10.7101C0.882024 10.1161 0.559824 9.45014 0.637224 8.66354C0.705045 8.1681 0.890178 7.69601 1.17722 7.28654C1.22664 7.20546 1.28073 7.12733 1.33922 7.05254C1.8819 6.40069 2.21505 5.60014 2.29502 4.75574C2.32613 4.54711 2.37368 4.34127 2.43722 4.14014C2.53782 3.66662 2.78433 3.23655 3.14209 2.91044C3.49984 2.58432 3.95084 2.37858 4.43162 2.32214C5.52141 2.16491 6.55468 1.73799 7.43762 1.08014C8.46002 0.316939 9.56162 0.378139 10.5714 1.13414C11.3622 1.74511 12.2994 2.13798 13.2894 2.27354C14.1336 2.38694 14.8896 2.74694 15.2694 3.58574C15.4508 4.00423 15.5761 4.44484 15.642 4.89614C15.7376 5.6495 16.0342 6.36326 16.5006 6.96254C16.667 7.18171 16.8163 7.4134 16.947 7.65554C17.4474 8.53934 17.3934 9.41414 16.8696 10.2709C16.7361 10.5014 16.5882 10.7232 16.4268 10.9351C16.0051 11.4719 15.7398 12.1148 15.66 12.7927C15.6112 13.1072 15.5414 13.4181 15.4512 13.7233C15.3513 14.1316 15.1404 14.5043 14.8418 14.8001C14.5431 15.0958 14.1684 15.3032 13.7592 15.3991C13.445 15.4875 13.1259 15.5572 12.8034 15.6079C12.1614 15.6893 11.552 15.9376 11.0358 16.3279C10.7564 16.5603 10.4507 16.759 10.125 16.9201C9.75705 17.0656 9.38151 17.1912 9.00002 17.2963L8.96942 17.2261ZM16.083 8.92634C16.0514 8.7621 16.0062 8.60075 15.948 8.44394C15.8509 8.22396 15.7301 8.01514 15.588 7.82114C14.9399 7.03198 14.533 6.07266 14.4162 5.05814C14.3824 4.84617 14.3337 4.63686 14.2704 4.43174C14.2281 4.22355 14.126 4.03218 13.9768 3.881C13.8275 3.72981 13.6375 3.62535 13.4298 3.58034C13.2068 3.51655 12.9802 3.46606 12.7512 3.42914C11.858 3.33015 11.0086 2.98977 10.2942 2.44454C10.1142 2.30234 9.91082 2.18174 9.71642 2.05574C9.50079 1.89398 9.23896 1.80564 8.9694 1.80369C8.69985 1.80175 8.43677 1.8863 8.21882 2.04494C8.03882 2.16734 7.84082 2.28254 7.66262 2.41754C7.00527 2.93818 6.2201 3.27264 5.38922 3.38594C5.16062 3.41294 4.93562 3.47774 4.70702 3.51734C4.41752 3.55143 4.14812 3.68266 3.94281 3.8896C3.7375 4.09654 3.60842 4.36697 3.57662 4.65674C3.56222 4.74134 3.53702 4.82414 3.52802 4.90874C3.42385 5.96793 3.01074 6.97317 2.34002 7.79954C2.22303 7.9593 2.11947 8.12848 2.03042 8.30534C1.92233 8.48297 1.86516 8.6869 1.86516 8.89484C1.86516 9.10278 1.92233 9.30671 2.03042 9.48434C2.15834 9.71787 2.30145 9.94276 2.45882 10.1575C2.98875 10.819 3.33017 11.6113 3.44702 12.4507C3.48122 12.7225 3.54962 12.9907 3.61082 13.2571C3.65037 13.5016 3.7659 13.7274 3.94102 13.9025C4.11613 14.0777 4.34195 14.1932 4.58642 14.2327C4.82222 14.2813 5.05262 14.3515 5.29022 14.3821C6.13154 14.4829 6.92973 14.8101 7.59962 15.3289C7.72742 15.4297 7.86962 15.5089 7.99922 15.6115C8.62922 16.0849 9.25922 16.1047 9.89462 15.6223C9.97742 15.5611 10.0746 15.5071 10.1484 15.4423C10.7964 14.9617 11.4804 14.5621 12.2976 14.4361C12.6702 14.3785 13.0392 14.2939 13.4064 14.2075C13.6198 14.1669 13.8162 14.0635 13.9705 13.9105C14.1247 13.7575 14.2298 13.562 14.2722 13.3489C14.3382 13.1181 14.3911 12.8837 14.4306 12.6469C14.5332 11.7458 14.884 10.8908 15.444 10.1773C15.6043 9.97504 15.7442 9.75738 15.8616 9.52754C15.9484 9.33218 16.0224 9.13135 16.083 8.92634Z" fill="#675249"/>
<path d="M8.27997 9.38345L11.0538 6.60425C11.169 6.48905 11.2842 6.37205 11.4138 6.26225C11.4687 6.20438 11.5347 6.15807 11.6078 6.12605C11.6809 6.09402 11.7597 6.07692 11.8395 6.07575C11.9193 6.07457 11.9986 6.08935 12.0726 6.11921C12.1466 6.14908 12.2139 6.19342 12.2706 6.24965C12.3308 6.30572 12.379 6.37343 12.4123 6.44868C12.4456 6.52393 12.4633 6.60515 12.4643 6.68743C12.4653 6.76972 12.4496 6.85135 12.4182 6.92739C12.3867 7.00343 12.3402 7.07231 12.2814 7.12985C11.7414 7.69145 11.1816 8.24225 10.629 8.79485C10.0458 9.37985 9.45897 9.95945 8.87757 10.5444C8.47617 10.9512 8.15757 10.962 7.74537 10.5768C7.16397 10.0368 6.57717 9.51125 5.99397 8.97665C5.67177 8.68145 5.63397 8.30705 5.89857 8.02445C6.16317 7.74185 6.50337 7.77245 6.81657 8.05505C7.29177 8.49065 7.77417 8.92985 8.27997 9.38345Z" fill="#675249"/>
</g>
<defs>
<clipPath id="clip0_372_1935">
<rect width="18" height="18" fill="white"/>
</clipPath>
</defs>
</svg>
