<svg width="68" height="68" viewBox="0 0 68 68" fill="none" xmlns="http://www.w3.org/2000/svg">
<path d="M54.995 46.9891H45.4121C44.7984 46.9891 44.3011 46.4918 44.3011 45.8782V42.2773C44.3011 39.2637 41.858 36.8206 38.8444 36.8206H33.9999H29.1556C26.142 36.8206 23.6988 39.2637 23.6988 42.2773V45.8782C23.6988 46.4918 23.2015 46.9891 22.5879 46.9891H13.0049C12.2387 46.9891 11.569 47.5659 11.5168 48.3304C11.4594 49.1687 12.119 49.8681 12.9451 49.8744L17.7249 49.8917C19.1084 49.8967 20.4793 50.1564 21.7687 50.6579L26.7999 52.6145V58.6876H34H41.2001V52.6144L46.2313 50.6577C47.5209 50.1563 48.8916 49.8965 50.2752 49.8915L55.055 49.8742C55.8811 49.868 56.5405 49.1684 56.4833 48.3302C56.4309 47.5658 55.7613 46.9891 54.995 46.9891Z" fill="#31452D"/>
<path d="M8.42834 58.6874C8.42834 58.3119 8.73284 58.0074 9.10834 58.0074H9.92094V57.1948C9.92094 56.8193 10.2254 56.5148 10.6009 56.5148C10.9764 56.5148 11.2809 56.8193 11.2809 57.1948V58.0074H12.0935C12.469 58.0074 12.7735 58.3119 12.7735 58.6874C12.7735 59.0629 12.469 59.3674 12.0935 59.3674H11.2809V60.18C11.2809 60.5555 10.9764 60.86 10.6009 60.86C10.2254 60.86 9.92094 60.5555 9.92094 60.18V59.3674H9.10834C8.73271 59.3674 8.42834 59.063 8.42834 58.6874ZM58.079 58.0074V57.1948C58.079 56.8193 57.7746 56.5148 57.399 56.5148C57.0233 56.5148 56.719 56.8193 56.719 57.1948V58.0074H55.9064C55.5307 58.0074 55.2264 58.3119 55.2264 58.6874C55.2264 59.0629 55.5307 59.3674 55.9064 59.3674H56.719V60.18C56.719 60.5555 57.0233 60.86 57.399 60.86C57.7746 60.86 58.079 60.5555 58.079 60.18V59.3674H58.8916C59.2672 59.3674 59.5716 59.0629 59.5716 58.6874C59.5716 58.3119 59.2672 58.0074 58.8916 58.0074H58.079ZM21.6768 40.7437C21.9546 40.491 21.9749 40.0608 21.7222 39.7831C18.939 36.7234 17.4061 32.7598 17.4061 28.6224C17.4061 19.4726 24.8501 12.0287 33.9999 12.0287C43.1497 12.0287 50.5937 19.4726 50.5937 28.6224C50.5937 32.7598 49.0608 36.7235 46.2777 39.7831C46.025 40.061 46.0453 40.491 46.3231 40.7437C46.4534 40.8623 46.6171 40.9206 46.7803 40.9206C46.9652 40.9206 47.1495 40.8457 47.2835 40.6981C50.2951 37.3876 51.9537 33.099 51.9537 28.6223C51.9537 18.7226 43.8996 10.6685 33.9999 10.6685C24.1002 10.6685 16.0461 18.7226 16.0461 28.6223C16.0461 33.099 17.7046 37.3876 20.7162 40.6981C20.9689 40.9761 21.3989 40.9964 21.6768 40.7437ZM6.01176 66.64H5.0467C4.6712 66.64 4.3667 66.9445 4.3667 67.32C4.3667 67.6955 4.6712 68 5.0467 68H6.01176C6.38725 68 6.69176 67.6955 6.69176 67.32C6.69176 66.9445 6.38725 66.64 6.01176 66.64ZM60.2554 67.32C60.2554 67.6955 59.951 68 59.5754 68H48.0366H46.7876H21.2122H19.9633H8.42453C8.04904 68 7.74453 67.6955 7.74453 67.32C7.74453 66.9445 8.04904 66.64 8.42453 66.64H16.6576C15.793 65.7861 15.2561 64.6011 15.2561 63.2928V62.7146C15.2561 60.1191 17.3678 58.0074 19.9633 58.0074H48.0366C50.6321 58.0074 52.7437 60.1191 52.7437 62.7146V63.2928C52.7437 64.6011 52.2067 65.7861 51.3422 66.64H59.5754C59.9509 66.64 60.2554 66.9445 60.2554 67.32ZM21.2122 66.64H28.1332V61.0271C28.1332 60.6517 28.4378 60.3471 28.8132 60.3471C29.1887 60.3471 29.4932 60.6517 29.4932 61.0271V62.3238H38.5065V59.3675H19.9633C18.1177 59.3675 16.6161 60.8691 16.6161 62.7148V63.2929C16.6161 65.1386 18.1177 66.6401 19.9633 66.6401H21.2122V66.64ZM48.0366 66.64C49.8821 66.64 51.3837 65.1384 51.3837 63.2928V62.7146C51.3837 60.869 49.8821 59.3674 48.0366 59.3674H39.8665V64.9165C39.8665 65.292 39.5621 65.5965 39.1865 65.5965C38.8109 65.5965 38.5065 65.292 38.5065 64.9165V63.6838H29.4932V66.64H46.7877H48.0366ZM62.9532 66.64H61.988C61.6124 66.64 61.308 66.9445 61.308 67.32C61.308 67.6955 61.6124 68 61.988 68H62.9532C63.3288 68 63.6332 67.6955 63.6332 67.32C63.6332 66.9445 63.3287 66.64 62.9532 66.64ZM15.8209 43.5105C16.9674 43.5105 17.9001 44.4432 17.9001 45.5896C17.9001 45.8427 17.8523 46.0844 17.7691 46.3091H22.5877C22.8254 46.3091 23.0187 46.1158 23.0187 45.8781V42.2772C23.0187 38.8934 25.7716 36.1405 29.1554 36.1405H29.2861C26.787 34.5679 25.1217 31.7867 25.1217 28.6223C25.1217 23.7268 29.1044 19.7441 33.9999 19.7441C38.8953 19.7441 42.8781 23.7268 42.8781 28.6223C42.8781 31.7867 41.2126 34.5679 38.7136 36.1405H38.8442C42.228 36.1405 44.9809 38.8934 44.9809 42.2772V45.8781C44.9809 46.1158 45.1743 46.3091 45.4119 46.3091H50.2305C50.1473 46.0846 50.0996 45.8429 50.0996 45.5896C50.0996 44.4432 51.0322 43.5105 52.1787 43.5105C53.3252 43.5105 54.2579 44.4432 54.2579 45.5896C54.2579 45.8427 54.2102 46.0844 54.1269 46.3091H54.9949C56.134 46.3091 57.0856 47.1765 57.1615 48.2839C57.202 48.876 57.0029 49.4408 56.601 49.8745C56.2046 50.3022 55.6429 50.55 55.06 50.5545L50.2774 50.5717C49.6198 50.5742 48.9687 50.6372 48.3291 50.7594C48.3229 50.7608 48.3166 50.7623 48.3103 50.7635C47.6873 50.8837 47.0749 51.0596 46.4777 51.2919L41.88 53.0798V56.5171C41.88 56.8926 41.5756 57.1971 41.2 57.1971C40.8244 57.1971 40.52 56.8926 40.52 56.5171V52.6143C40.52 52.6138 40.5201 52.6132 40.5201 52.6126V43.4768C40.5201 43.1013 40.8245 42.7968 41.2001 42.7968C41.5758 42.7968 41.8801 43.1013 41.8801 43.4768V51.6202L45.9847 50.0239C46.4818 49.8307 46.9884 49.6726 47.502 49.5479V47.669H45.412C44.4244 47.669 43.6211 46.8655 43.6211 45.878V42.2771C43.6211 39.6432 41.4782 37.5004 38.8443 37.5004H29.1556C26.5216 37.5004 24.3788 39.6432 24.3788 42.2771V45.878C24.3788 46.8655 23.5753 47.669 22.5878 47.669H20.4978V49.5479C21.0113 49.6725 21.5179 49.8305 22.015 50.0239L26.1198 51.6202V43.4768C26.1198 43.1013 26.4243 42.7968 26.7998 42.7968C27.1753 42.7968 27.4798 43.1013 27.4798 43.4768V52.6143V52.8552V56.5167C27.4798 56.8922 27.1753 57.1967 26.7998 57.1967C26.4243 57.1967 26.1198 56.8922 26.1198 56.5167V53.0794L21.5222 51.2915C20.925 51.0592 20.3126 50.8833 19.6895 50.7631C19.6832 50.7619 19.6769 50.7605 19.6706 50.759C19.0309 50.6369 18.38 50.5738 17.7222 50.5713L12.9423 50.5541C12.3567 50.5496 11.795 50.3019 11.3987 49.8742C10.9967 49.4405 10.7977 48.8755 10.8381 48.2837C10.9139 47.1764 11.8655 46.3088 13.0047 46.3088H13.8726C13.7893 46.0843 13.7416 45.8426 13.7416 45.5894C13.7416 44.4433 14.6744 43.5105 15.8209 43.5105ZM51.4596 45.5896C51.4596 45.9862 51.7822 46.3088 52.1787 46.3088C52.5753 46.3088 52.8979 45.9862 52.8979 45.5896C52.8979 45.1931 52.5753 44.8705 52.1787 44.8705C51.7822 44.8705 51.4596 45.1931 51.4596 45.5896ZM54.9949 47.6691H48.8618V49.3029C49.3282 49.2459 49.7985 49.2134 50.2724 49.2116L55.0523 49.1943C55.2623 49.1927 55.4589 49.1059 55.6035 48.9499C55.7479 48.7941 55.8193 48.5906 55.8046 48.3767C55.778 47.9865 55.4147 47.6691 54.9949 47.6691ZM33.9999 36.1405C38.1454 36.1405 41.5181 32.7678 41.5181 28.6223C41.5181 24.4767 38.1454 21.1041 33.9999 21.1041C29.8543 21.1041 26.4817 24.4767 26.4817 28.6223C26.4817 32.7678 29.8543 36.1405 33.9999 36.1405ZM19.1378 47.6691H13.0047C12.5849 47.6691 12.2217 47.9865 12.195 48.3767C12.1804 48.5906 12.2518 48.7942 12.3961 48.9499C12.5407 49.1059 12.7374 49.1927 12.9499 49.1943L17.7271 49.2116C18.201 49.2134 18.6713 49.2459 19.1378 49.3029V47.6691ZM15.1016 45.5896C15.1016 45.9862 15.4242 46.3088 15.8208 46.3088C16.2173 46.3088 16.5399 45.9862 16.5399 45.5896C16.5399 45.1931 16.2173 44.8705 15.8208 44.8705C15.4242 44.8705 15.1016 45.1931 15.1016 45.5896ZM33.3199 4.03512V8.6039C33.3199 8.9794 33.6244 9.2839 33.9999 9.2839C34.3754 9.2839 34.6799 8.9794 34.6799 8.6039V4.03512C34.6799 3.65962 34.3755 3.35512 33.9999 3.35512C33.6242 3.35512 33.3199 3.65962 33.3199 4.03512ZM33.9999 1.93106C34.3754 1.93106 34.6799 1.62656 34.6799 1.25106V0.68C34.6799 0.304504 34.3754 0 33.9999 0C33.6244 0 33.3199 0.304504 33.3199 0.68V1.25106C33.3199 1.62656 33.6242 1.93106 33.9999 1.93106ZM47.7408 14.5719C47.9147 14.5719 48.0889 14.5055 48.2215 14.3728L51.4522 11.1422C51.7178 10.8766 51.7178 10.446 51.4522 10.1806C51.1869 9.91508 50.756 9.91508 50.4907 10.1806L47.26 13.411C46.9944 13.6766 46.9944 14.1071 47.26 14.3726C47.3928 14.5054 47.5668 14.5719 47.7408 14.5719ZM52.9401 9.37258C53.114 9.37258 53.2881 9.30621 53.4208 9.17347L53.8247 8.76969C54.0903 8.50422 54.0903 8.07364 53.8249 7.80803C53.5593 7.54242 53.1288 7.54242 52.8632 7.80803L52.4593 8.21182C52.1937 8.47729 52.1937 8.90786 52.4592 9.17347C52.5919 9.30607 52.766 9.37258 52.9401 9.37258ZM53.0626 27.6328C53.0626 28.0083 53.367 28.3128 53.7426 28.3128H58.3114C58.687 28.3128 58.9914 28.0083 58.9914 27.6328C58.9914 27.2573 58.687 26.9528 58.3114 26.9528H53.7426C53.367 26.9528 53.0626 27.2573 53.0626 27.6328ZM62.3465 27.6328C62.3465 27.2573 62.0421 26.9528 61.6665 26.9528H61.0954C60.7198 26.9528 60.4154 27.2573 60.4154 27.6328C60.4154 28.0083 60.7198 28.3128 61.0954 28.3128H61.6665C62.042 28.3128 62.3465 28.0083 62.3465 27.6328ZM9.68852 28.3128H14.2573C14.6328 28.3128 14.9373 28.0083 14.9373 27.6328C14.9373 27.2573 14.6328 26.9528 14.2573 26.9528H9.68852C9.31302 26.9528 9.00852 27.2573 9.00852 27.6328C9.00852 28.0083 9.31302 28.3128 9.68852 28.3128ZM6.90446 26.9528H6.3334C5.9579 26.9528 5.6534 27.2573 5.6534 27.6328C5.6534 28.0083 5.9579 28.3128 6.3334 28.3128H6.90446C7.27996 28.3128 7.58446 28.0083 7.58446 27.6328C7.58446 27.2573 7.27996 26.9528 6.90446 26.9528ZM19.7781 14.3726C19.911 14.5054 20.0849 14.5717 20.259 14.5717C20.4331 14.5717 20.607 14.5054 20.7399 14.3726C21.0055 14.107 21.0055 13.6764 20.7399 13.411L17.5093 10.1804C17.2437 9.91494 16.8133 9.91494 16.5477 10.1804C16.2821 10.446 16.2821 10.8766 16.5477 11.1421L19.7781 14.3726ZM14.5788 9.17347C14.7117 9.30621 14.8856 9.37258 15.0597 9.37258C15.2338 9.37258 15.4077 9.30621 15.5406 9.17347C15.8062 8.90786 15.8062 8.47729 15.5406 8.21182L15.1368 7.80803C14.8712 7.54256 14.4408 7.54256 14.1752 7.80803C13.9095 8.07364 13.9095 8.50422 14.1752 8.76969L14.5788 9.17347Z" fill="white"/>
</svg>
