<svg width="16" height="16" viewBox="0 0 16 16" fill="none" xmlns="http://www.w3.org/2000/svg">
<mask id="mask0_243_1019" style="mask-type:alpha" maskUnits="userSpaceOnUse" x="0" y="0" width="16" height="16">
<rect width="16" height="16" fill="#D9D9D9"/>
</mask>
<g mask="url(#mask0_243_1019)">
<path d="M4.00033 15.3443C3.63366 15.3443 3.31977 15.2105 3.05866 14.943C2.79755 14.6754 2.66699 14.3538 2.66699 13.9781V7.14754C2.66699 6.77186 2.79755 6.45025 3.05866 6.18272C3.31977 5.91519 3.63366 5.78142 4.00033 5.78142H4.66699V4.4153C4.66699 3.4704 4.99199 2.66496 5.64199 1.99898C6.29199 1.33299 7.0781 1 8.00033 1C8.92255 1 9.70866 1.33299 10.3587 1.99898C11.0087 2.66496 11.3337 3.4704 11.3337 4.4153V5.78142H12.0003C12.367 5.78142 12.6809 5.91519 12.942 6.18272C13.2031 6.45025 13.3337 6.77186 13.3337 7.14754V13.9781C13.3337 14.3538 13.2031 14.6754 12.942 14.943C12.6809 15.2105 12.367 15.3443 12.0003 15.3443H4.00033ZM8.00033 11.929C8.36699 11.929 8.68088 11.7952 8.94199 11.5277C9.2031 11.2601 9.33366 10.9385 9.33366 10.5628C9.33366 10.1872 9.2031 9.86555 8.94199 9.59802C8.68088 9.33049 8.36699 9.19672 8.00033 9.19672C7.63366 9.19672 7.31977 9.33049 7.05866 9.59802C6.79755 9.86555 6.66699 10.1872 6.66699 10.5628C6.66699 10.9385 6.79755 11.2601 7.05866 11.5277C7.31977 11.7952 7.63366 11.929 8.00033 11.929ZM6.00033 5.78142H10.0003V4.4153C10.0003 3.84608 9.80588 3.36225 9.41699 2.9638C9.0281 2.56535 8.55588 2.36612 8.00033 2.36612C7.44477 2.36612 6.97255 2.56535 6.58366 2.9638C6.19477 3.36225 6.00033 3.84608 6.00033 4.4153V5.78142Z" fill="#2A1A13"/>
</g>
</svg>
