<svg width="140" height="36" viewBox="0 0 140 36" fill="none" xmlns="http://www.w3.org/2000/svg">
<path d="M34.2496 29.0769C30.1168 26.1443 24.8332 26.3077 18.5696 29.4065C12.1268 26.3077 6.84042 26.1554 2.71042 29.0769C-2.40798 33.0092 2.21202 34.9754 7.00002 34.9754C11.0899 35.0177 15.1035 33.8802 18.55 31.7022C22.0002 33.8791 26.0161 35.0164 30.1084 34.9754C34.748 35.1305 39.368 33.0092 34.2496 29.0769ZM4.84962 30.2206C7.84002 28.7695 11.4604 29.0769 16.0804 30.888C8.98522 35.6234 -1.90958 34.6458 4.85522 30.2317L4.84962 30.2206ZM21.028 30.8769C25.4912 29.0769 29.2908 28.7585 32.2644 30.2206C39.0348 34.6458 28.14 35.6234 21.0336 30.888L21.028 30.8769Z" fill="#2A1A13"/>
<path d="M17.2368 5.904C15.9152 7.37446 13.5968 9.32954 10.1388 11.4425C9.31842 12.4283 9.48362 13.7354 10.8052 15.5271C13.0394 18.328 14.3142 21.7594 14.4452 25.3246C12.9573 21.9033 10.8923 18.757 8.33842 16.02C6.68362 13.2508 6.84882 11.1212 9.15882 9.32123C10.9704 8.18031 12.7988 7.20277 14.6104 6.22523C16.5816 4.92646 17.7352 3.12369 17.9032 0.830769C18.4016 2.96031 18.0684 4.76031 17.2368 5.904Z" fill="#2A1A13"/>
<path d="M29.12 16.0283C26.81 18.4791 24.8248 21.5668 23.0132 25.3329C23.0132 21.9046 24.3348 18.6425 26.6532 15.5354C27.9748 13.5803 28.14 12.2732 27.3084 11.4508C23.8448 9.16615 21.3668 7.37446 20.0452 5.91231C19.2248 4.76031 18.8916 2.96031 19.39 0.830769C19.712 3.28154 20.8768 5.08154 22.8536 6.22523C24.5084 7.04492 26.32 8.18861 28.308 9.32954C30.618 11.1295 30.9484 13.4142 29.12 16.0283Z" fill="#2A1A13"/>
<path d="M21.8652 13.8988C21.8663 14.5452 21.6735 15.1774 21.3113 15.7154C20.949 16.2535 20.4336 16.6731 19.8301 16.9214C19.2267 17.1697 18.5623 17.2353 17.9211 17.1101C17.2799 16.9848 16.6906 16.6743 16.2279 16.2178C15.7652 15.7614 15.4497 15.1794 15.3214 14.5455C15.1932 13.9117 15.2579 13.2545 15.5074 12.657C15.7568 12.0596 16.1799 11.5487 16.723 11.1891C17.2661 10.8294 17.9048 10.6372 18.5584 10.6366C19.4333 10.6388 20.2718 10.9829 20.8913 11.594C21.5107 12.205 21.8608 13.0335 21.8652 13.8988Z" fill="#2A1A13"/>
<path d="M67.2 17.4462V18.4154C65.52 18.4154 64.6968 19.6394 64.6968 22.0985V29.0437C63.2166 29.9445 61.6057 30.616 59.92 31.0348C58.0853 31.4637 56.2052 31.6729 54.32 31.6578C51.7788 31.6888 49.274 31.0586 47.0568 29.8302C44.9486 28.6216 43.2034 26.8802 42 24.7846C40.7924 22.6104 40.1723 20.1648 40.1996 17.6843C40.1641 15.3504 40.7164 13.0445 41.8068 10.9745C42.8369 9.00153 44.4143 7.35986 46.354 6.24184C48.4119 5.06063 50.7565 4.45651 53.1356 4.49446C55.4372 4.49446 57.4056 4.7963 59.0156 5.39169C60.6256 5.98707 61.8436 6.73477 62.6304 7.64031C63.1024 8.27565 63.3865 9.02831 63.4508 9.81415C63.5928 10.8809 63.6583 11.9562 63.6468 13.032H62.4708C61.9724 10.6726 61.0708 8.95569 59.7268 7.86738C58.3828 6.77907 56.6104 6.24184 54.32 6.24184C51.3912 6.24184 49.2203 7.32923 47.8072 9.504C46.4072 11.6695 45.6904 14.4028 45.6904 17.6843C45.6904 22.1151 46.4604 25.2978 48.0004 27.2326C49.5721 29.1434 51.6787 30.1006 54.32 30.1043C56.364 30.1043 58.1289 29.7655 59.6148 29.088V22.1898C59.599 21.5452 59.7323 20.9054 60.0045 20.3194C60.2767 19.7334 60.6807 19.2167 61.1856 18.8086C62.2188 17.9031 64.2348 17.4462 67.2 17.4462Z" fill="#2A1A13"/>
<path d="M89.8296 25.992L81.0432 5.26154H79.2764L67.7096 30.8686H69.7424L72.9568 23.8154H83.398L84.294 25.992C85.134 27.9831 86.2176 29.3151 87.556 30.0212C88.9398 30.7088 90.4707 31.0565 92.0192 31.0348C92.6545 31.0533 93.2894 30.9863 93.9064 30.8354V29.8662C92.1797 29.6834 90.8208 28.392 89.8296 25.992ZM73.78 22.0708L78.3356 11.9437L82.6504 22.0708H73.78Z" fill="#2A1A13"/>
<path d="M115.058 5.26154L106.148 19.584V30.8797H101.049V20.6335L94.108 10.3182C93.3653 9.24837 92.4968 8.26953 91.5208 7.40215C90.6052 6.57138 89.7288 6.12277 88.8888 6.05077V5.26154H93.1672C94.4777 5.25101 95.7513 5.69046 96.7708 6.50492C97.882 7.3365 98.8308 8.36121 99.5708 9.52892L104.905 17.4794L112.507 5.26154H115.058Z" fill="#2A1A13"/>
<path d="M139.72 5.26154V19.7031C139.72 23.5043 138.907 26.3889 137.281 28.3569C135.663 30.2954 133.01 31.2646 129.324 31.2646C122.254 31.2646 118.72 27.4108 118.72 19.7031V10.3182C118.72 8.99169 118.544 8.02246 118.174 7.40215C117.804 6.78184 117.076 6.43292 115.976 6.43292V5.26154H120.291C121.235 5.26154 121.956 5.41661 122.452 5.72677C122.989 6.09448 123.365 6.64952 123.505 7.28031C123.751 8.26998 123.858 9.28855 123.822 10.3071L123.866 20.8523C123.887 23.5938 124.423 25.7298 125.474 27.2603C126.547 28.7575 128.091 29.5062 130.105 29.5062C132.765 29.5062 134.705 28.7308 135.906 27.1772C137.108 25.6237 137.746 23.1092 137.746 19.7003V5.26154H139.72Z" fill="#2A1A13"/>
</svg>
