<svg width="70" height="71" viewBox="0 0 70 71" fill="none" xmlns="http://www.w3.org/2000/svg">
<path d="M13.2301 52.44C11.9701 52.44 10.5001 52.16 8.96008 51.67L9.17008 50.97C12.5301 52.02 15.1201 51.88 17.0801 50.62C20.9301 48.03 21.4901 41.1 21.9101 35.01C22.0501 33.19 22.1901 31.51 22.4001 29.97C23.1001 25.14 25.8301 25 27.8601 24.86C29.4701 24.72 30.5201 24.3 31.2201 23.39C32.0601 22.34 32.2001 20.73 31.7801 18.49L32.4801 18.35C32.9001 20.87 32.6901 22.62 31.7801 23.81C31.0101 24.79 29.6801 25.42 27.9301 25.49C25.9701 25.63 23.7301 25.7 23.1701 29.97C22.9601 31.44 22.8201 33.12 22.6801 34.94C22.1901 41.17 21.7001 48.24 17.5001 51.11C16.2401 52.02 14.8401 52.44 13.2301 52.44Z" fill="#683826"/>
<path d="M56.8401 52.44C55.2301 52.44 53.8301 52.02 52.6401 51.25C48.5101 48.45 47.9501 41.38 47.4601 35.08C47.3201 33.26 47.1801 31.58 46.9701 30.11C46.4101 25.84 44.1701 25.7 42.2101 25.63C40.4601 25.49 39.1301 24.93 38.3601 23.95C37.4501 22.76 37.1701 20.94 37.6601 18.49L38.3601 18.63C37.9401 20.94 38.1501 22.55 38.9201 23.53C39.6201 24.37 40.6701 24.86 42.2801 25C44.3101 25.14 47.0401 25.28 47.7401 30.11C47.9501 31.58 48.0901 33.33 48.2301 35.15C48.7201 41.24 49.2101 48.17 53.0601 50.76C55.0201 52.09 57.6101 52.23 60.9701 51.11L61.1801 51.81C59.5701 52.23 58.1701 52.44 56.8401 52.44Z" fill="#683826"/>
<path d="M52.9901 69.45C51.3801 69.45 49.6301 69.31 47.7401 69.1C42.3501 68.4 38.7101 68.12 35.0701 68.12V67.42C38.7101 67.42 42.4201 67.7 47.8101 68.4C53.2001 69.1 57.6101 68.75 59.8501 67.49C61.2501 66.72 62.0901 65.46 62.0901 64.13C62.0901 62.94 61.4601 61.82 60.2001 61.05C57.9601 59.72 54.7401 58.88 51.5201 58.04C50.6101 57.83 49.7001 57.62 48.8601 57.34C44.5901 56.22 39.6901 54.12 39.1301 48.03C38.8501 45.02 39.7601 42.15 40.6001 39.56C41.2301 37.53 41.7901 35.78 41.5801 34.52L42.2801 34.38C42.5601 35.78 41.9301 37.6 41.3001 39.77C40.5301 42.29 39.6201 45.09 39.9001 47.96C40.1801 52.44 43.0501 55.1 49.0001 56.71C49.8401 56.92 50.7501 57.2 51.6601 57.41C54.8801 58.18 58.2401 59.02 60.5501 60.49C62.0201 61.4 62.8601 62.73 62.7901 64.13C62.7901 65.67 61.8101 67.14 60.2001 68.05C58.5901 68.96 56.0701 69.45 52.9901 69.45Z" fill="#683826"/>
<path d="M15.8901 69.31C13.6501 69.31 11.6901 68.89 9.94005 68.05C8.33005 67.28 7.35005 65.88 7.28005 64.34C7.21005 62.8 8.05005 61.4 9.59005 60.49C12.0401 58.95 15.1201 58.25 18.1301 57.55C19.9501 57.13 21.6301 56.71 23.1701 56.15C27.7201 54.54 29.9601 51.95 30.3801 48.1C30.6601 45.23 29.7501 42.43 28.9801 39.91C28.2801 37.81 27.7201 35.99 28.0001 34.52L28.7001 34.66C28.4901 35.92 29.0501 37.67 29.6801 39.7C30.5201 42.29 31.43 45.16 31.1501 48.17C30.7301 52.3 28.2801 55.1 23.5201 56.78C21.9101 57.34 20.1601 57.76 18.4101 58.18C15.4701 58.88 12.4601 59.65 10.0801 61.05C8.75005 61.82 8.05005 63.01 8.12005 64.27C8.19005 65.6 9.03005 66.72 10.3601 67.42C13.5801 68.96 17.7801 69.03 22.6101 67.49C24.7801 66.79 26.7401 65.88 28.6301 64.97C32.8301 63.01 37.1701 60.91 44.0301 61.26V61.96C37.3801 61.68 33.1101 63.71 28.9801 65.6C27.0901 66.51 25.0601 67.42 22.8901 68.12C20.3001 68.96 17.9901 69.31 15.8901 69.31Z" fill="#683826"/>
<path d="M35.0701 20.03C32.7601 20.03 30.6601 18.14 29.4001 14.99C28.9101 13.73 28.5601 12.19 28.4901 10.72C28.3501 7.57002 29.5401 5.05002 31.7101 3.72002C33.7401 2.46002 36.4001 2.46002 38.4301 3.72002C40.6701 5.05002 41.8601 7.57002 41.7201 10.72C41.6501 12.12 41.3701 13.59 40.8101 14.99C39.5501 18.21 37.3801 20.03 35.0701 20.03ZM35.0701 3.51002C34.0201 3.51002 32.9701 3.79002 32.0601 4.35002C30.0301 5.54002 28.9801 7.85002 29.1201 10.72C29.1901 12.12 29.5401 13.52 30.0301 14.78C31.1501 17.65 33.0401 19.33 35.0701 19.33C37.1001 19.33 38.9901 17.58 40.1101 14.71C40.6001 13.38 40.8801 11.98 40.9501 10.65C41.0901 7.78002 40.0401 5.47002 38.0101 4.28002C37.1701 3.79002 36.1201 3.51002 35.0701 3.51002Z" fill="#683826"/>
</svg>
