<svg width="68" height="68" viewBox="0 0 68 68" fill="none" xmlns="http://www.w3.org/2000/svg">
<path d="M42.5562 27.4514H40.0217H29.866C28.9581 27.4514 28.222 28.1874 28.222 29.0954V37.8303C28.222 39.1784 29.3149 40.2713 30.6631 40.2713C30.708 40.2713 30.7518 40.267 30.796 40.2647V55.3019H44.2V29.0954C44.2001 28.1874 43.4641 27.4514 42.5562 27.4514Z" fill="#31452D"/>
<path d="M24.3819 46.7284H25.1945V45.9158C25.1945 45.5401 25.499 45.2358 25.8745 45.2358C26.25 45.2358 26.5545 45.5401 26.5545 45.9158V46.7284H27.3671C27.7426 46.7284 28.0471 47.0327 28.0471 47.4084C28.0471 47.784 27.7426 48.0884 27.3671 48.0884H26.5545V48.901C26.5545 49.2766 26.25 49.581 25.8745 49.581C25.499 49.581 25.1945 49.2766 25.1945 48.901V48.0884H24.3819C24.0064 48.0884 23.7019 47.784 23.7019 47.4084C23.7019 47.0327 24.0064 46.7284 24.3819 46.7284ZM49.1215 49.5808C49.4971 49.5808 49.8015 49.2765 49.8015 48.9008V48.0882H50.6141C50.9897 48.0882 51.2941 47.7839 51.2941 47.4082C51.2941 47.0326 50.9897 46.7282 50.6141 46.7282H49.8015V45.9156C49.8015 45.54 49.4971 45.2356 49.1215 45.2356C48.7459 45.2356 48.4415 45.54 48.4415 45.9156V46.7282H47.6289C47.2533 46.7282 46.9489 47.0326 46.9489 47.4082C46.9489 47.7839 47.2533 48.0882 47.6289 48.0882H48.4415V48.9008C48.4415 49.2765 48.746 49.5808 49.1215 49.5808ZM28.9093 25.9077C29.0837 25.9077 29.2582 25.8411 29.391 25.7077C29.6561 25.4418 29.6554 25.0112 29.3894 24.7462C27.2107 22.5746 26.0109 19.685 26.0109 16.6097C26.0109 10.2758 31.1639 5.12258 37.498 5.12258C43.8319 5.12258 48.9851 10.2758 48.9851 16.6097C48.9851 19.6852 47.7853 22.5748 45.6066 24.7462C45.3406 25.0112 45.3398 25.4417 45.605 25.7077C45.87 25.9738 46.3006 25.9745 46.5665 25.7093C49.0031 23.281 50.345 20.0494 50.345 16.6097C50.345 9.52571 44.5818 3.76258 37.4979 3.76258C30.414 3.76258 24.6508 9.52571 24.6508 16.6097C24.6508 20.0493 25.9927 23.281 28.4293 25.7093C28.5621 25.8416 28.7357 25.9077 28.9093 25.9077ZM43.5199 53.2591V29.0953C43.5199 28.5638 43.0876 28.1313 42.5561 28.1313H40.7016V32.5498C40.7016 34.0487 39.4821 35.2682 37.9831 35.2682C36.4843 35.2682 35.2647 34.0487 35.2647 32.5498V31.7684C35.2647 31.7306 35.234 31.6998 35.1962 31.6998H33.8527C33.8149 31.6998 33.7841 31.7306 33.7841 31.7684V37.8302C33.7841 39.551 32.384 40.9511 30.6631 40.9511C28.9421 40.9511 27.542 39.551 27.542 37.83V29.0952C27.542 27.8138 28.5846 26.7712 29.8658 26.7712H36.8179V23.6821C36.0922 23.5736 35.3885 23.2915 34.7772 22.8333C33.0629 21.5481 32.4815 19.2088 33.3949 17.2705L36.8827 9.86952C36.9949 9.63138 37.2346 9.47947 37.4977 9.47947C37.7609 9.47947 38.0005 9.63138 38.1127 9.86952L41.6006 17.2705C42.514 19.2086 41.9326 21.5481 40.2184 22.8333C39.6072 23.2914 38.9033 23.5734 38.1776 23.6821V26.7712H40.0213H42.5558C43.8372 26.7712 44.8797 27.8138 44.8797 29.0952V53.2591C44.8797 53.6347 44.5753 53.9391 44.1997 53.9391C43.824 53.9391 43.5199 53.6347 43.5199 53.2591ZM36.818 22.3011V19.4129C36.818 19.0373 37.1224 18.7329 37.498 18.7329C37.8736 18.7329 38.178 19.0373 38.178 19.4129V22.3013C38.6135 22.207 39.0326 22.023 39.4031 21.7453C40.6032 20.8455 41.0102 19.2076 40.3707 17.8504L37.498 11.7548L34.6253 17.8505C33.9858 19.2076 34.3928 20.8454 35.593 21.7453C35.9634 22.0229 36.3827 22.2068 36.818 22.3011ZM39.3416 28.1313H29.8658C29.3343 28.1313 28.902 28.5638 28.902 29.0953V37.8302C28.902 38.8013 29.692 39.5912 30.6631 39.5912C31.6341 39.5912 32.4241 38.8012 32.4241 37.8303V31.7685C32.4241 30.9808 33.0649 30.34 33.8527 30.34H35.1962C35.9839 30.34 36.6247 30.9808 36.6247 31.7685V32.55C36.6247 33.2991 37.234 33.9083 37.9831 33.9083C38.7322 33.9083 39.3416 33.2991 39.3416 32.55V28.1313ZM30.7959 44.1615C30.4204 44.1615 30.1159 44.4659 30.1159 44.8415V53.2592C30.1159 53.6349 30.4204 53.9392 30.7959 53.9392C31.1714 53.9392 31.4759 53.6349 31.4759 53.2592V44.8415C31.4759 44.4659 31.1716 44.1615 30.7959 44.1615ZM31.4759 42.5246C31.4759 42.149 31.1714 41.8446 30.7959 41.8446C30.4204 41.8446 30.1159 42.149 30.1159 42.5246V42.8204C30.1159 43.196 30.4204 43.5004 30.7959 43.5004C31.1714 43.5004 31.4759 43.196 31.4759 42.8204V42.5246ZM40.5377 41.9122C40.5377 43.3208 39.3917 44.4668 37.9831 44.4668C36.5746 44.4668 35.4285 43.3208 35.4285 41.9122V39.71C35.4285 38.3014 36.5746 37.1553 37.9831 37.1553C39.3917 37.1553 40.5377 38.3014 40.5377 39.71V41.9122ZM39.1777 39.7098C39.1777 39.051 38.6419 38.5152 37.9831 38.5152C37.3243 38.5152 36.7885 39.051 36.7885 39.7098V41.9121C36.7885 42.5709 37.3243 43.1067 37.9831 43.1067C38.6419 43.1067 39.1777 42.5709 39.1777 41.9121V39.7098ZM40.5377 48.076V48.2397C40.5377 49.6483 39.3917 50.7944 37.9831 50.7944C36.5746 50.7944 35.4285 49.6483 35.4285 48.2397V48.076C35.4285 46.6673 36.5746 45.5212 37.9831 45.5212C39.3917 45.5212 40.5377 46.6673 40.5377 48.076ZM39.1777 48.076C39.1777 47.4172 38.6419 46.8812 37.9831 46.8812C37.3243 46.8812 36.7885 47.4172 36.7885 48.076V48.2397C36.7885 48.8985 37.3243 49.4344 37.9831 49.4344C38.6419 49.4344 39.1777 48.8985 39.1777 48.2397V48.076ZM51.477 55.3018V59.2253C51.477 61.1651 50.5434 62.8905 49.1023 63.977C49.8552 64.2943 50.3852 65.0397 50.3852 65.9068C50.3852 67.0609 49.4463 68 48.292 68H26.8474H21.0653C20.6898 68 20.3853 67.6956 20.3853 67.32C20.3853 66.9444 20.6898 66.64 21.0653 66.64H24.8893C24.8034 66.4114 24.7543 66.1651 24.7543 65.9068C24.7543 65.0397 25.2843 64.2943 26.0371 63.977C24.5961 62.8905 23.6625 61.1649 23.6625 59.2253V55.9818H20.5169C20.2018 57.5024 18.852 58.6489 17.2393 58.6489C15.3937 58.6489 13.8922 57.1473 13.8922 55.3018C13.8922 53.4563 15.3938 51.9547 17.2393 51.9547C18.852 51.9547 20.2018 53.1012 20.5169 54.6218H24.3425H50.797C51.1727 54.6218 51.477 54.9262 51.477 55.3018ZM19.2265 55.3018C19.2265 54.2061 18.3351 53.3147 17.2394 53.3147C16.1438 53.3147 15.2523 54.2062 15.2523 55.3018C15.2523 56.3974 16.1438 57.2889 17.2394 57.2889C18.3351 57.2889 19.2265 56.3976 19.2265 55.3018ZM45.5285 65.1737H29.611H26.8474C26.4431 65.1737 26.1143 65.5026 26.1143 65.907C26.1143 66.3113 26.4431 66.6401 26.8474 66.6401H48.292C48.6964 66.6401 49.0252 66.3113 49.0252 65.907C49.0252 65.5026 48.6964 65.1737 48.292 65.1737H45.5285ZM50.117 55.9818H25.0225V59.2253C25.0225 61.7554 27.0808 63.8136 29.611 63.8136H45.5285C48.0587 63.8136 50.117 61.7553 50.117 59.2253V55.9818ZM37.498 3.31609C37.8736 3.31609 38.178 3.01172 38.178 2.63609V0.68C38.178 0.304368 37.8736 0 37.498 0C37.1224 0 36.818 0.304368 36.818 0.68V2.63609C36.818 3.01172 37.1224 3.31609 37.498 3.31609ZM47.3788 7.40887C47.5528 7.40887 47.727 7.3425 47.8596 7.20963L49.2427 5.82651C49.5083 5.56104 49.5083 5.13046 49.2427 4.86499C48.9774 4.59938 48.5465 4.59938 48.2812 4.86499L46.898 6.24811C46.6324 6.51358 46.6324 6.94416 46.898 7.20963C47.0306 7.34237 47.2049 7.40887 47.3788 7.40887ZM53.4277 15.9297H51.4717C51.0961 15.9297 50.7917 16.234 50.7917 16.6097C50.7917 16.9853 51.0961 17.2897 51.4717 17.2897H53.4277C53.8033 17.2897 54.1077 16.9853 54.1077 16.6097C54.1077 16.234 53.8032 15.9297 53.4277 15.9297ZM21.5683 17.2897H23.5243C23.8998 17.2897 24.2043 16.9853 24.2043 16.6097C24.2043 16.234 23.8998 15.9297 23.5243 15.9297H21.5683C21.1928 15.9297 20.8883 16.234 20.8883 16.6097C20.8883 16.9853 21.1928 17.2897 21.5683 17.2897ZM27.1363 7.20963C27.2692 7.3425 27.4431 7.40887 27.6172 7.40887C27.7913 7.40887 27.9652 7.3425 28.0981 7.20963C28.3637 6.94416 28.3637 6.51358 28.0981 6.24811L26.715 4.86499C26.4494 4.59938 26.0189 4.59938 25.7533 4.86499C25.4877 5.13046 25.4877 5.56104 25.7533 5.82651L27.1363 7.20963ZM18.5298 66.64H17.7678C17.3923 66.64 17.0878 66.9444 17.0878 67.32C17.0878 67.6956 17.3923 68 17.7678 68H18.5298C18.9053 68 19.2098 67.6956 19.2098 67.32C19.2098 66.9444 18.9053 66.64 18.5298 66.64Z" fill="white"/>
</svg>
