<svg width="70" height="71" viewBox="0 0 70 71" fill="none" xmlns="http://www.w3.org/2000/svg">
<path d="M37.3798 55.03C22.8898 55.03 11.0598 43.27 11.0598 28.71C11.0598 14.22 22.8198 2.39001 37.3798 2.39001C51.8698 2.39001 63.6998 14.15 63.6998 28.71C63.6298 43.27 51.8698 55.03 37.3798 55.03ZM37.3798 3.16001C23.2398 3.16001 11.7598 14.64 11.7598 28.78C11.7598 42.92 23.2398 54.4 37.3798 54.4C51.5198 54.4 62.9998 42.92 62.9998 28.78C62.9298 14.64 51.4498 3.16001 37.3798 3.16001Z" fill="#683826"/>
<path d="M37.3798 47.82C26.8798 47.82 18.3398 39.28 18.3398 28.78C18.3398 18.28 26.8798 9.73999 37.3798 9.73999C47.8798 9.73999 56.4198 18.28 56.4198 28.78C56.4198 39.28 47.8798 47.82 37.3798 47.82ZM37.3798 10.44C27.2998 10.44 19.0398 18.7 19.0398 28.78C19.0398 38.86 27.2998 47.12 37.3798 47.12C47.4598 47.12 55.7198 38.86 55.7198 28.78C55.7198 18.63 47.4598 10.44 37.3798 10.44Z" fill="#683826"/>
<path d="M37.3798 36.1301C33.3198 36.1301 30.0298 32.8401 30.0298 28.7801C30.0298 24.7201 33.3198 21.4301 37.3798 21.4301C41.4398 21.4301 44.7298 24.7201 44.7298 28.7801C44.7298 32.8401 41.4398 36.1301 37.3798 36.1301ZM37.3798 22.1301C33.7398 22.1301 30.7298 25.1401 30.7298 28.7801C30.7298 32.4201 33.7398 35.4301 37.3798 35.4301C41.0198 35.4301 44.0298 32.4201 44.0298 28.7801C44.0298 25.1401 41.0198 22.1301 37.3798 22.1301Z" fill="#683826"/>
<path d="M16.4319 58.0769L16.1638 58.7235L40.7989 68.9381L41.067 68.2915L16.4319 58.0769Z" fill="#683826"/>
<path d="M11.4099 64.06C9.79992 64.06 8.18992 63.29 7.20992 62.03C6.15992 60.7 6.01992 59.02 6.71992 57.34L8.74992 52.44C9.44992 50.76 10.7099 49.71 12.3899 49.5C14.1399 49.29 16.0999 50.06 17.2199 51.53C18.2699 52.86 18.4099 54.54 17.7099 56.22L15.6799 61.12C14.9799 62.8 13.7199 63.85 12.0399 64.06C11.8299 64.06 11.6199 64.06 11.4099 64.06ZM13.0199 50.13C12.8099 50.13 12.6699 50.13 12.4599 50.13C11.0599 50.34 9.93992 51.18 9.37992 52.65L7.34992 57.55C6.71992 58.95 6.92992 60.42 7.76992 61.54C8.74992 62.8 10.3599 63.5 11.9699 63.29C13.3699 63.08 14.4899 62.24 15.0499 60.77L17.0799 55.87C17.7099 54.47 17.4999 53 16.6599 51.88C15.8199 50.83 14.4199 50.13 13.0199 50.13Z" fill="#683826"/>
</svg>
