<svg width="70" height="71" viewBox="0 0 70 71" fill="none" xmlns="http://www.w3.org/2000/svg">
<path d="M42.7701 68.75L38.9901 56.78C37.5201 52.23 37.6601 49.15 38.5001 44.39L42.5601 20.24L42.9101 20.31C46.9701 21.08 49.2101 24.3 48.6501 28.57L47.4601 37.39C47.2501 39.07 48.3 39.98 49.42 40.19C50.5401 40.33 51.8701 39.77 52.1501 38.09L53.9701 27.38C54.3901 24.79 54.2501 22.83 52.0801 20.38L44.1001 11.42C42.7701 9.95003 42.2101 8.20003 42.4201 6.59003C42.7001 5.05003 43.6801 3.65003 45.3601 2.67003L45.5701 2.53003L62.5101 19.05V19.12L66.29 34.17C67.2 37.95 67.55 40.96 66.22 45.09L59.3601 68.61L42.7701 68.75ZM43.12 21.01L39.2001 44.46C38.4301 49.08 38.2901 52.09 39.6901 56.5L43.3301 67.98L58.94 67.84L65.6601 44.81C66.9201 40.82 66.6401 38.02 65.6601 34.24L61.8801 19.4L45.5001 3.37003C44.1701 4.21003 43.33 5.33003 43.12 6.66003C42.91 8.06003 43.4001 9.60003 44.5901 10.93L52.5701 19.82C54.8801 22.48 55.0201 24.72 54.6001 27.38L52.7801 38.09C52.4301 40.19 50.7501 41.03 49.2101 40.82C47.8101 40.61 46.34 39.42 46.6201 37.25L47.8101 28.36C48.4401 24.65 46.6201 21.85 43.12 21.01Z" fill="#683826"/>
<path d="M27.37 68.75L10.71 68.68L3.85003 45.09C2.59003 40.96 2.87003 37.95 3.78003 34.17L7.56003 19.05L24.57 2.53003L24.78 2.67003C26.39 3.65003 27.44 4.98003 27.72 6.59003C28 8.20003 27.37 9.95003 26.04 11.42L18.06 20.31C15.96 22.76 15.75 24.72 16.17 27.31L17.99 38.02C18.27 39.7 19.6 40.33 20.72 40.12C21.84 39.98 22.89 39 22.68 37.32L21.49 28.5C20.93 24.23 23.17 21.01 27.23 20.24L27.58 20.17L31.64 44.32C32.41 49.08 32.55 52.16 31.15 56.71L27.37 68.75ZM11.2 67.91L26.81 67.98L30.45 56.5C31.85 52.09 31.71 49.08 30.94 44.46L27.02 21.01C23.52 21.85 21.7 24.65 22.19 28.43L23.38 37.25C23.66 39.42 22.26 40.61 20.79 40.82C19.32 41.03 17.57 40.19 17.22 38.09L15.4 27.38C14.98 24.65 15.12 22.48 17.43 19.82L25.41 10.93C26.6 9.60003 27.16 8.06003 26.88 6.66003C26.67 5.33003 25.83 4.21003 24.5 3.37003L8.26003 19.4L4.48003 34.31C3.57003 38.02 3.29003 40.82 4.48003 44.88L11.2 67.91Z" fill="#683826"/>
</svg>
